<svg xmlns="http://www.w3.org/2000/svg" xmlns:xlink="http://www.w3.org/1999/xlink" id="Group_76165" width="257.077" height="229.887" data-name="Group 76165" viewBox="0 0 257.077 229.887"><defs><linearGradient id="linear-gradient-tokenomics-logo" x1=".551" x2="1.089" y1=".499" y2=".485" gradientUnits="objectBoundingBox"><stop offset="0" stop-color="orange"/><stop offset="1" stop-color="#076c95"/></linearGradient><linearGradient id="linear-gradient-tokenomics-logo-2" x1="-.331" x2="1.087" y1=".264" y2=".669" gradientUnits="objectBoundingBox"><stop offset=".14" stop-color="#bc0050"/><stop offset=".19" stop-color="#a12569"/><stop offset=".28" stop-color="#7b588b"/><stop offset=".36" stop-color="#5a84aa"/><stop offset=".45" stop-color="#3faac3"/><stop offset=".55" stop-color="#28c9d8"/><stop offset=".64" stop-color="#16e1e9"/><stop offset=".75" stop-color="#0af2f4"/><stop offset=".86" stop-color="#02fcfb"/><stop offset="1" stop-color="#00fffd"/></linearGradient></defs><g id="Group_68654" data-name="Group 68654" transform="translate(82.139 201.596)"><g id="Group_68653" data-name="Group 68653" transform="translate(0)"><path id="Path_41688" fill="url(#linear-gradient-tokenomics-logo)" d="M552.914,676.566A4.607,4.607,0,0,0,548.872,674H427.4a4.608,4.608,0,0,0-4.607,4.608V700.27a2.02,2.02,0,0,0,2.02,2.02H565.726Z" data-name="Path 41688" transform="translate(-422.794 -674)"/></g></g><g id="Group_68657" data-name="Group 68657" transform="translate(128.436)"><g id="Group_68656" data-name="Group 68656" transform="translate(0)"><path id="Path_41689" fill="#00fffd" d="M548.7,239,660.759,465.917a2.021,2.021,0,0,1-1.758,2.85H628.831L540.521,291.178" data-name="Path 41689" transform="translate(-532.296 -239)"/><path id="Path_67147" fill="url(#linear-gradient-tokenomics-logo-2)" d="M538.945,239l33.364,67.394-16.975,34.071L523,275.355a4.634,4.634,0,0,1,0-4.041Z" data-name="Path 67147" transform="translate(-522.538 -239)"/></g></g><g id="Group_68660" data-name="Group 68660" transform="translate(0)"><g id="Group_68659" data-name="Group 68659" transform="translate(0)"><path id="Path_41690" fill="#ff00b9" d="M356.04,241.577a4.608,4.608,0,0,1,4.042-2.546h30.494l-.263.525L373.641,273,276.763,467.463A2.022,2.022,0,0,1,275,468.554H250.31a4.608,4.608,0,0,1-4.042-6.649Z" data-name="Path 41690" transform="translate(-245.791 -239.03)"/></g></g></svg>