<svg xmlns="http://www.w3.org/2000/svg" width="981" height="981" fill="none" viewBox="0 0 981 981"><mask id="mask0_1855_2994" width="749" height="749" x="116" y="116" maskUnits="userSpaceOnUse" style="mask-type:alpha"><circle cx="490.5" cy="490.5" r="373.689" fill="#C4C4C4" transform="rotate(-157.043 490.5 490.5)"/><circle cx="490.5" cy="490.5" r="373.689" stroke="#fff" transform="rotate(-157.043 490.5 490.5)"/><circle cx="490.5" cy="490.5" r="373.689" stroke="#fff" transform="rotate(-157.043 490.5 490.5)"/></mask><g mask="url(#mask0_1855_2994)"><g filter="url(#filter0_b_1855_2994)"><circle cx="490.5" cy="490.5" r="374.189" fill="#fff" fill-opacity=".01" transform="rotate(-157.043 490.5 490.5)"/><circle cx="490.5" cy="490.5" r="372.689" stroke="#95CEF5" stroke-opacity=".3" stroke-width="3" transform="rotate(-157.043 490.5 490.5)"/><circle cx="490.5" cy="490.5" r="372.689" stroke="#95CEF5" stroke-opacity=".3" stroke-width="3" transform="rotate(-157.043 490.5 490.5)"/></g><mask id="mask1_1855_2994" width="517" height="930" x="-25" y="-91" maskUnits="userSpaceOnUse" style="mask-type:alpha"><path fill="#C4C4C4" d="M487.976 497.884L343.764 838.342L231.545 836.698L-24.5157 450.476L491.478 -90.5679L487.976 497.884Z"/></mask><g mask="url(#mask1_1855_2994)"><circle cx="490.5" cy="490.5" r="370.189" stroke="url(#paint0_linear_1855_2994)" stroke-width="8" transform="rotate(-157.043 490.5 490.5)"/></g></g><mask id="mask2_1855_2994" width="595" height="595" x="193" y="193" maskUnits="userSpaceOnUse" style="mask-type:alpha"><circle cx="490.5" cy="490.5" r="296.926" fill="#C4C4C4" transform="rotate(90.1975 490.5 490.5)"/><circle cx="490.5" cy="490.5" r="296.926" stroke="#fff" transform="rotate(90.1975 490.5 490.5)"/><circle cx="490.5" cy="490.5" r="296.926" stroke="#fff" transform="rotate(90.1975 490.5 490.5)"/></mask><g mask="url(#mask2_1855_2994)"><circle cx="490.5" cy="490.5" r="295.926" stroke="#95CEF5" stroke-opacity=".3" stroke-width="3" transform="rotate(90.1975 490.5 490.5)"/><circle cx="490.5" cy="490.5" r="295.926" stroke="#95CEF5" stroke-opacity=".3" stroke-width="3" transform="rotate(90.1975 490.5 490.5)"/><mask id="mask3_1855_2994" width="589" height="397" x="325" y="489" maskUnits="userSpaceOnUse" style="mask-type:alpha"><path fill="#C4C4C4" d="M491.619 489.967L862.5 616L913.033 596.141L703.286 833.472L325.262 885.388L491.619 489.967Z"/></mask><g mask="url(#mask3_1855_2994)"><circle cx="490.5" cy="490.5" r="293.426" stroke="url(#paint1_linear_1855_2994)" stroke-width="8" transform="rotate(90.1975 490.5 490.5)"/></g></g><mask id="mask4_1855_2994" width="471" height="471" x="255" y="255" maskUnits="userSpaceOnUse" style="mask-type:alpha"><circle cx="490.5" cy="490.5" r="234.039" fill="#C4C4C4" transform="rotate(23.1287 490.5 490.5)"/><circle cx="490.5" cy="490.5" r="234.039" stroke="#fff" transform="rotate(23.1287 490.5 490.5)"/><circle cx="490.5" cy="490.5" r="234.039" stroke="#fff" transform="rotate(23.1287 490.5 490.5)"/></mask><g mask="url(#mask4_1855_2994)"><circle cx="490.5" cy="490.5" r="233.039" stroke="#95CEF5" stroke-opacity=".3" stroke-width="3" transform="rotate(23.1287 490.5 490.5)"/><circle cx="490.5" cy="490.5" r="233.039" stroke="#95CEF5" stroke-opacity=".3" stroke-width="3" transform="rotate(23.1287 490.5 490.5)"/><mask id="mask5_1855_2994" width="388" height="514" x="493" y="115" maskUnits="userSpaceOnUse" style="mask-type:alpha"><path fill="#C4C4C4" d="M493.26 482.501L763.5 207.5L772.437 115.927L881 628.5L493.26 482.501Z"/></mask><g mask="url(#mask5_1855_2994)"><circle cx="490.499" cy="490.5" r="230.539" stroke="url(#paint2_linear_1855_2994)" stroke-width="8" transform="rotate(23.1287 490.499 490.5)"/></g></g><mask id="mask6_1855_2994" width="345" height="345" x="318" y="318" maskUnits="userSpaceOnUse" style="mask-type:alpha"><circle cx="490.5" cy="490.5" r="171.107" fill="#C4C4C4" transform="rotate(23.1287 490.5 490.5)"/><circle cx="490.5" cy="490.5" r="171.107" stroke="#fff" transform="rotate(23.1287 490.5 490.5)"/><circle cx="490.5" cy="490.5" r="171.107" stroke="#fff" transform="rotate(23.1287 490.5 490.5)"/></mask><g mask="url(#mask6_1855_2994)"><circle cx="490.5" cy="490.5" r="170.107" stroke="#95CEF5" stroke-opacity=".3" stroke-width="3" transform="rotate(23.1287 490.5 490.5)"/><circle cx="490.5" cy="490.5" r="170.107" stroke="#95CEF5" stroke-opacity=".3" stroke-width="3" transform="rotate(23.1287 490.5 490.5)"/><mask id="mask7_1855_2994" width="205" height="271" x="492" y="214" maskUnits="userSpaceOnUse" style="mask-type:alpha"><path fill="#C4C4C4" d="M492.519 484.648L607.752 214.862L696.786 216.433L696.786 278.5L492.519 484.648Z"/></mask><g mask="url(#mask7_1855_2994)"><circle cx="490.499" cy="490.5" r="167.607" stroke="url(#paint3_linear_1855_2994)" stroke-width="8" transform="rotate(23.1287 490.499 490.5)"/></g></g><mask id="mask8_1855_2994" width="207" height="207" x="387" y="387" maskUnits="userSpaceOnUse" style="mask-type:alpha"><circle cx="490.5" cy="490.5" r="102.288" fill="#C4C4C4"/><circle cx="490.5" cy="490.5" r="102.288" stroke="#fff"/><circle cx="490.5" cy="490.5" r="102.288" stroke="#fff"/></mask><g mask="url(#mask8_1855_2994)"><circle cx="490.5" cy="490.5" r="101.288" stroke="#95CEF5" stroke-opacity=".3" stroke-width="3"/><circle cx="490.5" cy="490.5" r="101.288" stroke="#95CEF5" stroke-opacity=".3" stroke-width="3"/><mask id="mask9_1855_2994" width="133" height="328" x="490" y="157" maskUnits="userSpaceOnUse" style="mask-type:alpha"><path fill="#C4C4C4" d="M490.059 484.324V190.96L572.554 157.432L622.845 200.224L490.059 484.324Z"/></mask><g mask="url(#mask9_1855_2994)"><circle cx="490.5" cy="490.5" r="98.788" stroke="url(#paint4_linear_1855_2994)" stroke-width="8"/></g></g><defs><filter id="filter0_b_1855_2994" width="916.571" height="916.57" x="32.214" y="32.215" color-interpolation-filters="sRGB" filterUnits="userSpaceOnUse"><feFlood flood-opacity="0" result="BackgroundImageFix"/><feGaussianBlur in="BackgroundImage" stdDeviation="42"/><feComposite in2="SourceAlpha" operator="in" result="effect1_backgroundBlur_1855_2994"/><feBlend in="SourceGraphic" in2="effect1_backgroundBlur_1855_2994" mode="normal" result="shape"/></filter><linearGradient id="paint0_linear_1855_2994" x1="342.476" x2="490.5" y1="-1203.7" y2="864.689" gradientUnits="userSpaceOnUse"><stop stop-color="#04C9E4"/><stop offset=".479" stop-color="#FA41A5"/><stop offset="1" stop-color="#F3BD2F"/></linearGradient><linearGradient id="paint1_linear_1855_2994" x1="547.695" x2="592.183" y1="-317.527" y2="902.405" gradientUnits="userSpaceOnUse"><stop stop-color="#04C9E4"/><stop offset=".479" stop-color="#FA41A5"/><stop offset="1" stop-color="#F3BD2F"/></linearGradient><linearGradient id="paint2_linear_1855_2994" x1="384.48" x2="1023.49" y1="240.752" y2="509.191" gradientUnits="userSpaceOnUse"><stop stop-color="#04C9E4"/><stop offset=".479" stop-color="#FA41A5"/><stop offset="1" stop-color="#F3BD2F"/></linearGradient><linearGradient id="paint3_linear_1855_2994" x1="412.927" x2="880.475" y1="307.765" y2="504.176" gradientUnits="userSpaceOnUse"><stop stop-color="#04C9E4"/><stop offset=".479" stop-color="#FA41A5"/><stop offset="1" stop-color="#F3BD2F"/></linearGradient><linearGradient id="paint4_linear_1855_2994" x1="490.5" x2="490.5" y1="387.712" y2="593.288" gradientUnits="userSpaceOnUse"><stop stop-color="#04C9E4"/><stop offset=".479" stop-color="#FA41A5"/><stop offset="1" stop-color="#F3BD2F"/></linearGradient></defs></svg>