<svg xmlns="http://www.w3.org/2000/svg" width="82" height="64" fill="none" viewBox="0 0 82 64"><path fill="#F4AC3C" d="M14.8701 44.9643L40.8365 59.9648L66.8029 44.9643V14.9819L40.8365 0L14.8701 14.9819V44.9643Z"/><path fill="url(#paint0_linear_1855_3184)" d="M14.8701 44.9644L40.8173 59.9462V30.0385L14.8701 15.0566V44.9644Z" opacity=".56"/><path fill="url(#paint1_linear_1855_3184)" d="M66.7838 15.0371L40.8174 30.0376V59.9438L40.8361 59.9624L66.8024 44.9619V15.0558L66.7838 15.0371Z" opacity=".56"/><path fill="#F4AC3C" d="M45.3193 32.485L63.5145 21.9863L81.7097 32.485V53.4823L63.5145 63.9997L45.3193 53.4818V32.485Z"/><path fill="#fff" d="M45.3193 32.485L63.5145 21.9863L81.7097 32.485V53.4823L63.5145 63.9997L45.3193 53.4818V32.485Z"/><path fill="url(#paint2_linear_1855_3184)" d="M63.5145 21.9863L81.7097 32.485L63.5145 42.9837L45.3193 32.485L63.5145 21.9863Z"/><path fill="url(#paint3_linear_1855_3184)" d="M45.3193 32.4844L63.5145 42.983V63.9964L45.3193 53.4817V32.4844Z"/><path fill="url(#paint4_linear_1855_3184)" d="M63.5146 42.983L81.7098 32.4844V53.4817L63.5146 63.9985V42.983Z"/><path fill="#F4AC3C" d="M0 32.485L18.1952 21.9863L36.3904 32.485V53.4823L18.1952 63.9997L0 53.4818V32.485Z"/><path fill="url(#paint5_linear_1855_3184)" d="M0 32.4844L18.1952 42.983V63.9964L0 53.4817V32.4844Z"/><path fill="url(#paint6_linear_1855_3184)" d="M18.1953 42.983L36.3905 32.4844V53.4817L18.1953 63.9985V42.983Z"/><path fill="url(#paint7_linear_1855_3184)" d="M18.1952 21.9863L36.3904 32.485L18.1952 42.9837L0 32.485L18.1952 21.9863Z"/><defs><linearGradient id="paint0_linear_1855_3184" x1="18.217" x2="35.66" y1="122.971" y2="119.427" gradientUnits="userSpaceOnUse"><stop stop-color="#fff" stop-opacity="0"/><stop offset="1" stop-color="#fff" stop-opacity=".4"/></linearGradient><linearGradient id="paint1_linear_1855_3184" x1="43.078" x2="64.801" y1="111.716" y2="115.397" gradientUnits="userSpaceOnUse"><stop stop-color="#231F20" stop-opacity=".4"/><stop offset="1" stop-color="#231F20" stop-opacity="0"/></linearGradient><linearGradient id="paint2_linear_1855_3184" x1="45.319" x2="81.71" y1="32.485" y2="32.485" gradientUnits="userSpaceOnUse"><stop stop-color="#F4AC3C"/><stop offset="1" stop-color="#F4AC3C" stop-opacity="0"/></linearGradient><linearGradient id="paint3_linear_1855_3184" x1="51.342" x2="63.855" y1="112.745" y2="133.463" gradientUnits="userSpaceOnUse"><stop stop-color="#F4AC3C"/><stop offset="1" stop-color="#EAE9F0"/></linearGradient><linearGradient id="paint4_linear_1855_3184" x1="75.087" x2="63.615" y1="117.383" y2="133.334" gradientUnits="userSpaceOnUse"><stop stop-color="#F4AC3C"/><stop offset="1" stop-color="#F0F0F0"/></linearGradient><linearGradient id="paint5_linear_1855_3184" x1="3.584" x2="19.303" y1="36.675" y2="47.647" gradientUnits="userSpaceOnUse"><stop stop-color="#F4AC3C"/><stop offset="1" stop-color="#F4AC3C" stop-opacity="0"/></linearGradient><linearGradient id="paint6_linear_1855_3184" x1="29.767" x2="18.295" y1="117.383" y2="133.334" gradientUnits="userSpaceOnUse"><stop stop-color="#F4AC3C"/><stop offset="1" stop-color="#F0F0F0"/></linearGradient><linearGradient id="paint7_linear_1855_3184" x1="0" x2="36.39" y1="32.485" y2="32.485" gradientUnits="userSpaceOnUse"><stop stop-color="#F4AC3C"/><stop offset="1" stop-color="#879BA8" stop-opacity=".04"/></linearGradient></defs></svg>